<?xml version="1.0" encoding="UTF-8" standalone="no"?>
<!DOCTYPE svg PUBLIC "-//W3C//DTD SVG 1.1//EN"
 "http://www.w3.org/Graphics/SVG/1.1/DTD/svg11.dtd">
<!-- Generated by graphviz version 2.44.1 (20200629.0846)
 -->
<!-- Title: BN_example Pages: 1 -->
<svg width="108pt" height="203pt"
 viewBox="0.00 0.00 108.01 203.04" xmlns="http://www.w3.org/2000/svg" xmlns:xlink="http://www.w3.org/1999/xlink">
<g id="graph0" class="graph" transform="scale(1 1) rotate(0) translate(4 199.04)">
<title>BN_example</title>
<!-- A -->
<g id="node1" class="node">
<title>A</title>
<ellipse fill="none" stroke="blue" cx="49.51" cy="-174.53" rx="20.51" ry="20.51"/>
<text text-anchor="middle" x="49.51" y="-170.13" font-family="Arial" font-size="18.00" fill="green">A</text>
</g>
<!-- B -->
<g id="node2" class="node">
<title>B</title>
<ellipse fill="none" stroke="blue" cx="20.51" cy="-97.52" rx="20.51" ry="20.51"/>
<text text-anchor="middle" x="20.51" y="-93.12" font-family="Arial" font-size="18.00" fill="green">B</text>
</g>
<!-- A&#45;&gt;B -->
<g id="edge1" class="edge">
<title>A&#45;&gt;B</title>
<path fill="none" stroke="yellow" d="M42.34,-154.99C39,-146.36 34.96,-135.91 31.27,-126.36"/>
<polygon fill="yellow" stroke="yellow" points="34.46,-124.91 27.59,-116.85 27.93,-127.44 34.46,-124.91"/>
</g>
<!-- C -->
<g id="node3" class="node">
<title>C</title>
<ellipse fill="none" stroke="blue" cx="79.51" cy="-97.52" rx="20.51" ry="20.51"/>
<text text-anchor="middle" x="79.51" y="-93.12" font-family="Arial" font-size="18.00" fill="green">C</text>
</g>
<!-- A&#45;&gt;C -->
<g id="edge2" class="edge">
<title>A&#45;&gt;C</title>
<path fill="none" stroke="yellow" d="M56.92,-154.99C60.37,-146.36 64.55,-135.91 68.37,-126.36"/>
<polygon fill="yellow" stroke="yellow" points="71.71,-127.43 72.18,-116.85 65.21,-124.83 71.71,-127.43"/>
</g>
<!-- D -->
<g id="node4" class="node">
<title>D</title>
<ellipse fill="none" stroke="blue" cx="20.51" cy="-20.51" rx="20.51" ry="20.51"/>
<text text-anchor="middle" x="20.51" y="-16.11" font-family="Arial" font-size="18.00" fill="green">D</text>
</g>
<!-- B&#45;&gt;D -->
<g id="edge3" class="edge">
<title>B&#45;&gt;D</title>
<path fill="none" stroke="yellow" d="M20.51,-76.81C20.51,-68.97 20.51,-59.78 20.51,-51.17"/>
<polygon fill="yellow" stroke="yellow" points="24.01,-51.08 20.51,-41.08 17.01,-51.08 24.01,-51.08"/>
</g>
<!-- C&#45;&gt;D -->
<g id="edge4" class="edge">
<title>C&#45;&gt;D</title>
<path fill="none" stroke="yellow" d="M67.28,-80.98C59.13,-70.62 48.27,-56.81 39.06,-45.1"/>
<polygon fill="yellow" stroke="yellow" points="41.65,-42.73 32.72,-37.03 36.15,-47.05 41.65,-42.73"/>
</g>
<!-- E -->
<g id="node5" class="node">
<title>E</title>
<ellipse fill="none" stroke="blue" cx="79.51" cy="-20.51" rx="20.51" ry="20.51"/>
<text text-anchor="middle" x="79.51" y="-16.11" font-family="Arial" font-size="18.00" fill="green">E</text>
</g>
<!-- C&#45;&gt;E -->
<g id="edge5" class="edge">
<title>C&#45;&gt;E</title>
<path fill="none" stroke="yellow" d="M79.51,-76.81C79.51,-68.97 79.51,-59.78 79.51,-51.17"/>
<polygon fill="yellow" stroke="yellow" points="83.01,-51.08 79.51,-41.08 76.01,-51.08 83.01,-51.08"/>
</g>
</g>
</svg>
